<svg width="54" height="50" viewBox="0 0 54 50" fill="none" xmlns="http://www.w3.org/2000/svg">
<rect width="53.3639" height="50" rx="25" fill="#FF7504" fill-opacity="0.2"/>
<path fill-rule="evenodd" clip-rule="evenodd" d="M26.5839 21.5C25.6189 21.5 24.8339 22.285 24.8339 23.251C24.8339 24.216 25.6189 25 26.5839 25C27.5489 25 28.3339 24.216 28.3339 23.251C28.3339 22.285 27.5489 21.5 26.5839 21.5ZM26.5839 26.5C24.7919 26.5 23.3339 25.043 23.3339 23.251C23.3339 21.458 24.7919 20 26.5839 20C28.3759 20 29.8339 21.458 29.8339 23.251C29.8339 25.043 28.3759 26.5 26.5839 26.5Z" fill="#222222"/>
<mask id="mask0_5_1465" style="mask-type:luminance" maskUnits="userSpaceOnUse" x="18" y="15" width="17" height="20">
<path fill-rule="evenodd" clip-rule="evenodd" d="M18.3334 15H34.8329V34.5H18.3334V15Z" fill="white"/>
</mask>
<g mask="url(#mask0_5_1465)">
<path fill-rule="evenodd" clip-rule="evenodd" d="M26.5829 16.5C22.8609 16.5 19.8329 19.557 19.8329 23.313C19.8329 28.092 25.4569 32.748 26.5829 32.996C27.7089 32.747 33.3329 28.091 33.3329 23.313C33.3329 19.557 30.3049 16.5 26.5829 16.5ZM26.5829 34.5C24.7889 34.5 18.3329 28.948 18.3329 23.313C18.3329 18.729 22.0339 15 26.5829 15C31.1319 15 34.8329 18.729 34.8329 23.313C34.8329 28.948 28.3769 34.5 26.5829 34.5Z" fill="#222222"/>
</g>
</svg>
