<svg width="25" height="24" viewBox="0 0 25 24" fill="none" xmlns="http://www.w3.org/2000/svg">
<path fill-rule="evenodd" clip-rule="evenodd" d="M12.738 22.5011C12.614 22.5011 12.491 22.4711 12.379 22.4101C12.066 22.2391 4.69296 18.1751 2.89596 12.5811C2.89496 12.5811 2.89496 12.5801 2.89496 12.5801C1.76696 9.05812 3.02296 4.63212 7.07796 3.32512C8.98196 2.70912 11.057 2.98012 12.735 4.03912C14.361 3.01112 16.521 2.72712 18.387 3.32512C22.446 4.63412 23.706 9.05912 22.579 12.5801C20.84 18.1101 13.413 22.2351 13.098 22.4081C12.986 22.4701 12.862 22.5011 12.738 22.5011Z" fill="white"/>
<path opacity="0.5" fill-rule="evenodd" clip-rule="evenodd" d="M4.32344 12.1229C5.72544 16.4849 11.2644 20.0119 12.7364 20.8849C14.2134 20.0029 19.7924 16.4369 21.1494 12.1269C22.0404 9.34093 21.2134 5.81193 17.9274 4.75293C16.3354 4.24193 14.4784 4.55293 13.1964 5.54493C12.9284 5.75093 12.5564 5.75493 12.2864 5.55093C10.9284 4.52993 9.15444 4.23093 7.53744 4.75293C4.25644 5.81093 3.43244 9.33993 4.32344 12.1229Z" fill="#A9A9A9"/>
<path fill-rule="evenodd" clip-rule="evenodd" d="M18.6537 10.625C18.2667 10.625 17.9387 10.328 17.9067 9.93602C17.8407 9.11402 17.2907 8.42002 16.5077 8.16702C16.1127 8.03902 15.8967 7.61602 16.0237 7.22302C16.1527 6.82902 16.5717 6.61502 16.9677 6.73902C18.3307 7.18002 19.2857 8.38702 19.4027 9.81402C19.4357 10.227 19.1287 10.589 18.7157 10.622C18.6947 10.624 18.6747 10.625 18.6537 10.625Z" fill="white"/>
</svg>
