<svg width="20" height="20" viewBox="0 0 20 20" fill="none" xmlns="http://www.w3.org/2000/svg">
<path d="M16.6666 8.33329C16.6666 12.015 9.99998 18.3333 9.99998 18.3333C9.99998 18.3333 3.33331 12.015 3.33331 8.33329C3.33331 6.56518 4.03569 4.86949 5.28593 3.61925C6.53618 2.36901 8.23187 1.66663 9.99998 1.66663C11.7681 1.66663 13.4638 2.36901 14.714 3.61925C15.9643 4.86949 16.6666 6.56518 16.6666 8.33329Z" fill="#1F4C6B"/>
<path d="M10 8.99988C10.2652 8.99988 10.5196 8.89452 10.7071 8.70698C10.8946 8.51945 11 8.26509 11 7.99988C11 7.73466 10.8946 7.48031 10.7071 7.29277C10.5196 7.10523 10.2652 6.99988 10 6.99988C9.73478 6.99988 9.48043 7.10523 9.29289 7.29277C9.10536 7.48031 9 7.73466 9 7.99988C9 8.26509 9.10536 8.51945 9.29289 8.70698C9.48043 8.89452 9.73478 8.99988 10 8.99988Z" fill="white" stroke="white" stroke-width="1.25" stroke-linecap="round" stroke-linejoin="round"/>
</svg>
