<svg width="25" height="24" viewBox="0 0 25 24" fill="none" xmlns="http://www.w3.org/2000/svg">
<path fill-rule="evenodd" clip-rule="evenodd" d="M12.5838 8.5C11.6188 8.5 10.8338 9.285 10.8338 10.251C10.8338 11.216 11.6188 12 12.5838 12C13.5488 12 14.3338 11.216 14.3338 10.251C14.3338 9.285 13.5488 8.5 12.5838 8.5ZM12.5838 13.5C10.7918 13.5 9.33383 12.043 9.33383 10.251C9.33383 8.458 10.7918 7 12.5838 7C14.3758 7 15.8338 8.458 15.8338 10.251C15.8338 12.043 14.3758 13.5 12.5838 13.5Z" fill="#888888"/>
<mask id="mask0_2_185" style="mask-type:luminance" maskUnits="userSpaceOnUse" x="4" y="2" width="17" height="20">
<path fill-rule="evenodd" clip-rule="evenodd" d="M4.33334 2H20.8328V21.5H4.33334V2Z" fill="white"/>
</mask>
<g mask="url(#mask0_2_185)">
<path fill-rule="evenodd" clip-rule="evenodd" d="M12.5829 3.5C8.86086 3.5 5.83286 6.557 5.83286 10.313C5.83286 15.092 11.4569 19.748 12.5829 19.996C13.7089 19.747 19.3329 15.091 19.3329 10.313C19.3329 6.557 16.3049 3.5 12.5829 3.5ZM12.5829 21.5C10.7889 21.5 4.33286 15.948 4.33286 10.313C4.33286 5.729 8.03386 2 12.5829 2C17.1319 2 20.8329 5.729 20.8329 10.313C20.8329 15.948 14.3769 21.5 12.5829 21.5Z" fill="#888888"/>
</g>
</svg>
