<svg width="12" height="12" viewBox="0 0 12 12" fill="none" xmlns="http://www.w3.org/2000/svg">
<path fill-rule="evenodd" clip-rule="evenodd" d="M6.55213 2.0885L7.46583 3.91388C7.55538 4.09308 7.72823 4.21734 7.92867 4.24609L9.97267 4.54031C10.4777 4.61322 10.6786 5.22527 10.3132 5.57597L8.83509 6.99622C8.68984 7.13588 8.62372 7.33665 8.65808 7.53382L9.0069 9.53891C9.0928 10.0349 8.56488 10.4133 8.1135 10.1787L6.28661 9.23134C6.10751 9.1384 5.89301 9.1384 5.71339 9.23134L3.8865 10.1787C3.43512 10.4133 2.9072 10.0349 2.99362 9.53891L3.34192 7.53382C3.37628 7.33665 3.31016 7.13588 3.16491 6.99622L1.68684 5.57597C1.32136 5.22527 1.52232 4.61322 2.02733 4.54031L4.07133 4.24609C4.27177 4.21734 4.44514 4.09308 4.53469 3.91388L5.44787 2.0885C5.67383 1.63717 6.32617 1.63717 6.55213 2.0885Z" fill="#278717"/>
</svg>
